# xmcd
#
# Track frame offsets:
#	150
#	18679
#	49376
#	71967
#	97927
#	129334
#	157425
#	183702
#	214989
#	240239
#	269786
#	293863
#	308147
#	333627
#
# Disc length: 4810 seconds
#
# Revision: 0
# Processed by: cddbd v1.5.1PL0 Copyright (c) Steve Scherf et al.
# Submitted via: dBpowerAMP V4.0
#
DISCID=e512c80e
DTITLE=DJ Ranade - January 2005 Trance Mix 
DYEAR=1900
DGENRE=
TTITLE0=Ayumi Hamasaki- Voyage (Dirt Devils Remix)
TTITLE1=Cosmicman- I Love You (v1.4 New Version)
TTITLE2=Ronski Speed- Eos (re Locate Rocks The Boat Mix)
TTITLE3=Aalto- Rush (Original Remix)
TTITLE4=Ron Van Den Beuken- Timeless Vocal Club Mix
TTITLE5=Future Breeze- Out of The Blue (Full Vocal Club Remix)
TTITLE6=Them Banshis- In Heaven
TTITLE7=Fear Force- Edge of The World
TTITLE8=Armin Van Buuren Feat. Justine Suissa- Burned With Desire (Ronski Speed Mix)
TTITLE9=Oceanlab- Sattelite (Karlg Remix)
TTITLE10=Yoji Biomehanika- Theme From Banginglobe (Delshamar Remix)
TTITLE11=Young Parisians Feat. Ben Lost- Jump The Next Train (Kyau VS. Albert Remix)
TTITLE12=Sonorous- Protonic (Ronski Speed Remix)
TTITLE13=G and M Project- Sunday Afternoon [NuNrg Remix]
EXTD=
EXTT0=
EXTT1=
EXTT2=
EXTT3=
EXTT4=
EXTT5=
EXTT6=
EXTT7=
EXTT8=
EXTT9=
EXTT10=
EXTT11=
EXTT12=
EXTT13=
PLAYORDER=
